<?xml version="1.0" encoding="UTF-8" standalone="no"?>
<svg
   xmlns:dc="http://purl.org/dc/elements/1.1/"
   xmlns:cc="http://creativecommons.org/ns#"
   xmlns:rdf="http://www.w3.org/1999/02/22-rdf-syntax-ns#"
   xmlns:svg="http://www.w3.org/2000/svg"
   xmlns="http://www.w3.org/2000/svg"
   xmlns:sodipodi="http://sodipodi.sourceforge.net/DTD/sodipodi-0.dtd"
   xmlns:inkscape="http://www.inkscape.org/namespaces/inkscape"
   width="128"
   height="128"
   viewBox="0 0 33.866666 33.866668"
   version="1.1"
   id="svg8"
   inkscape:version="1.0.1 (3bc2e813f5, 2020-09-07)"
   sodipodi:docname="icon.svg"
   inkscape:export-filename="C:\Users\rootx\Documents\Programming\Chrome Ext\TpT tracker\TpT-Extension\images\icon16.png"
   inkscape:export-xdpi="12"
   inkscape:export-ydpi="12">
  <defs
     id="defs2">
    <rect
       x="-10543.896"
       y="907.04205"
       width="6861.6399"
       height="-2378.182"
       id="rect868" />
    <rect
       x="-6372.3304"
       y="10419.77"
       width="5653.0556"
       height="2612.1016"
       id="rect862" />
    <rect
       x="-3994.1483"
       y="11238.489"
       width="15360.717"
       height="4678.3909"
       id="rect856" />
  </defs>
  <sodipodi:namedview
     id="base"
     pagecolor="#ffffff"
     bordercolor="#666666"
     borderopacity="1.0"
     inkscape:pageopacity="0.0"
     inkscape:pageshadow="2"
     inkscape:zoom="1.4142136"
     inkscape:cx="-85.692567"
     inkscape:cy="5.8720976"
     inkscape:document-units="px"
     inkscape:current-layer="g929"
     inkscape:document-rotation="0"
     showgrid="false"
     units="px"
     inkscape:window-width="1920"
     inkscape:window-height="1017"
     inkscape:window-x="-8"
     inkscape:window-y="-8"
     inkscape:window-maximized="1"
     inkscape:lockguides="false" />
  <metadata
     id="metadata5">
    <rdf:RDF>
      <cc:Work
         rdf:about="">
        <dc:format>image/svg+xml</dc:format>
        <dc:type
           rdf:resource="http://purl.org/dc/dcmitype/StillImage" />
        <dc:title />
      </cc:Work>
    </rdf:RDF>
  </metadata>
  <g
     inkscape:label="Ebene 1"
     inkscape:groupmode="layer"
     id="layer1">
    <g
       id="g897"
       transform="matrix(1.0138787,0,0,1.0138787,1.9743211,1.8094686)"
       style="stroke-width:0.260962">
      <g
         id="g839"
         style="stroke-width:0.260962">
        <g
           transform="matrix(0.00338079,0,0,-0.00338079,-2.1516879,14.198756)"
           id="g929"
           style="fill:#0aa56c;fill-opacity:1;stroke-width:2.01435">
          <text
             xml:space="preserve"
             id="text854"
             style="font-family:AnticFont;font-weight:bold;font-size:1646.70958206px;line-height:1.25;letter-spacing:0px;word-spacing:0px;-inkscape-font-specification:'AnticFont Bold';white-space:pre;shape-inside:url(#rect856);" />
          <path
             d="m -2843.4929,13115.557 c -683.0005,-67 -1260.9006,-120.5 -1281.9006,-122.5 -26.8,0 80.4,-118.6 369.3001,-407.5 l 405.5997,-405.6 -1071.4999,-1071.5 -1071.5001,-1071.4 -809.3001,809.3 -807.4002,807.4 -2062.6003,-2062.5004 -2060.6007,-2060.7003 424.801,-426.7001 426.7,-424.8 1630.0998,1630.3002 1632.0003,1632.0003 809.3,-809.3001 807.4002,-807.4001 1502.0003,1501.9002 1502,1502.0003 396.1003,-396.1 c 258.3001,-258.3 399.9004,-386.5 405.6,-367.3 3.7977,13.4 61.1997,587.4 126.2998,1270.4 63.1001,685 120.5006,1280 126.3006,1325.9 l 11.4997,80.4 -82.3002,-1.9 c -45.9996,-1.9 -643.0003,-57.4 -1327.8997,-124.4 z"
             id="path917-7"
             style="fill:#0aa56c;fill-opacity:1;stroke-width:2.01435" />
          <path
             d="m -3078.8931,9926.0567 -597.0003,-597.0001 V 6902.9562 4478.7558 h 602.6999 602.8 v 3023.0005 c 0,1662.7003 -1.8989,3023.0007 -5.6966,3023.0007 -1.9992,0.201 -273.5998,-269.6 -602.7999,-598.7003 z"
             id="path919-0"
             style="fill:#0aa56c;fill-opacity:1;stroke-width:2.01435" />
          <path
             d="m -7004.9939,6740.3562 v -2261.5 h 602.7001 602.7 v 1660.7999 1658.8002 l -602.7,602.7001 -602.7001,602.7002 z"
             id="path921-4"
             style="fill:#0aa56c;fill-opacity:1;stroke-width:2.01435" />
          <path
             d="m -4743.3936,8261.4565 -597.0001,-597.0002 V 6070.6561 4478.7558 h 602.7001 602.7001 v 2190.8004 c 0,1205.4002 -1.8996,2190.7003 -5.6996,2190.7003 -2,0.1004 -273.6001,-269.7 -602.7002,-598.8 z"
             id="path923-5"
             style="fill:#0aa56c;fill-opacity:1;stroke-width:2.01435" />
          <path
             d="m -8072.5941,8165.8564 -597.0001,-597 V 6022.9561 4478.8562 h 602.7001 602.7001 v 2142.9 c 0,1178.6001 -1.8996,2142.9003 -5.6997,2142.9003 -1.9004,0 -273.6001,-269.7001 -602.7001,-598.8001 z"
             id="path925-1"
             style="fill:#0aa56c;fill-opacity:1;stroke-width:2.01435" />
          <path
             d="m -9737.1943,6501.2562 -596.9997,-597.0001 v -713.7003 -711.8 h 602.7996 602.7001 v 1310.6003 c 0,721.3001 -1.9004,1310.6001 -5.6997,1310.6001 -1.9999,0.2007 -273.7,-269.6 -602.8,-598.7 z"
             id="path927-3"
             style="fill:#0aa56c;fill-opacity:1;stroke-width:2.01435" />
          <path
             d="m 8501.4641,3800.2553 c -683.0004,-67 -1260.9006,-120.5 -1281.9006,-122.5 -26.8,0 80.4,-118.6 369.3002,-407.5 l 405.5997,-405.6 -1071.5,-1071.5 L 5851.4631,721.75454 5042.1629,1531.0547 4234.7625,2338.4553 2172.1619,275.95404 111.56067,-1784.7465 l 424.801,-426.7001 426.69996,-424.8001 1630.10047,1630.3005 1632.0005,1632.00044 809.3002,-809.3002 807.4003,-807.40017 1502.0005,1501.90037 1502.0001,1502.00106 396.1003,-396.1005 c 258.3,-258.3001 399.9011,-386.5001 405.6,-367.3001 3.7977,13.4 61.1997,587.4006 126.2998,1270.4006 63.1001,685 120.5013,1280 126.3013,1325.9 l 11.4997,80.4 -82.3002,-1.9 c -46.0004,-1.9 -643.001,-57.4 -1327.9005,-124.4 z"
             id="path917-7-8"
             style="fill:#0aa56c;fill-opacity:1;stroke-width:2.01435" />
          <path
             d="M 8266.0639,610.75424 7669.0637,13.754038 V -2412.3467 -4836.5478 h 602.6999 602.7999 v 3023.0013 c 0,1662.70054 -1.8989,3023.0012 -5.6966,3023.0012 -1.9992,0.2007 -273.5998,-269.60016 -602.7999,-598.70046 z"
             id="path919-0-1"
             style="fill:#0aa56c;fill-opacity:1;stroke-width:2.01435" />
          <path
             d="m 4339.9627,-2574.9467 v -2261.5 h 602.7001 602.7002 v 1660.7998 1658.8005 l -602.7002,602.70014 -602.7001,602.7003 z"
             id="path921-4-5"
             style="fill:#0aa56c;fill-opacity:1;stroke-width:2.01435" />
          <path
             d="m 6601.5633,-1053.8461 -597.0002,-597.0003 v -1593.8005 -1591.9009 h 602.7002 602.7002 v 2190.8011 c 0,1205.4004 -1.8996,2190.70064 -5.6997,2190.70064 -2,0.1003 -273.6001,-269.7001 -602.7002,-598.80004 z"
             id="path923-5-0"
             style="fill:#0aa56c;fill-opacity:1;stroke-width:2.01435" />
          <path
             d="m 3272.3623,-1149.4463 -597.0002,-597 v -1545.9006 -1544.0998 h 602.7002 602.7002 v 2142.9 c 0,1178.6003 -1.8996,2142.90054 -5.6997,2142.90054 -1.9004,0 -273.6001,-269.7001 -602.7002,-598.80014 z"
             id="path925-1-8"
             style="fill:#0aa56c;fill-opacity:1;stroke-width:2.01435" />
          <path
             d="m 1607.7619,-2814.0468 -597.0003,-597.0002 v -713.7001 -711.8007 h 602.8001 602.7002 v 1310.6008 c 0,721.3003 -1.9004,1310.6004 -5.6997,1310.6004 -1.9999,0.2007 -273.7,-269.6001 -602.8001,-598.7002 z"
             id="path927-3-7"
             style="fill:#0aa56c;fill-opacity:1;stroke-width:2.01435" />
          <path
             d="m 9642.767,15351.115 c -683.0005,-67 -1260.9009,-120.5 -1281.9008,-122.5 -26.8001,0 80.3999,-118.6 369.3002,-407.5 l 405.5998,-405.6 -1071.5002,-1071.5 -1071.5005,-1071.401 -809.3003,809.3 -807.4005,807.401 -2062.6009,-2062.502 -2060.6016,-2060.7009 424.8011,-426.7002 426.7001,-424.8001 1630.1006,1630.3012 1632.0008,1632 809.3003,-809.3 807.4004,-807.4 1502.0008,1501.9 1502.0002,1502.002 396.1005,-396.101 c 258.3,-258.3 399.901,-386.5 405.6,-367.3 3.798,13.4 61.2,587.401 126.3,1270.401 63.1,685 120.501,1280 126.301,1325.9 l 11.5,80.4 -82.301,-1.9 c -46,-1.9 -643.001,-57.4 -1327.9,-124.4 z"
             id="path917-7-8-2"
             style="fill:#b4b4b4;fill-opacity:1;stroke-width:2.01435" />
          <path
             d="m 9407.3668,12161.613 -597.0004,-597 V 9138.5119 6714.3103 h 602.7 602.7996 v 3023.0018 c 0,1662.7009 -1.898,3023.0019 -5.696,3023.0019 -1.999,0.201 -273.6,-269.6 -602.8002,-598.701 z"
             id="path919-0-1-4"
             style="fill:#b4b4b4;fill-opacity:1;stroke-width:2.01435" />
          <path
             d="M 5481.2649,8975.9118 V 6714.4114 h 602.7002 602.7003 v 1660.8001 1658.8005 l -602.7003,602.701 -602.7002,602.7 z"
             id="path921-4-5-5"
             style="fill:#b4b4b4;fill-opacity:1;stroke-width:2.01435" />
          <path
             d="M 7742.8659,10497.013 7145.8656,9900.0123 V 8306.2115 6714.3103 h 602.7002 602.7003 v 2190.8015 c 0,1205.4002 -1.8996,2190.7012 -5.6997,2190.7012 -1.9999,0.1 -273.6001,-269.7 -602.7002,-598.8 z"
             id="path923-5-0-8"
             style="fill:#b4b4b4;fill-opacity:1;stroke-width:2.01435" />
          <path
             d="M 4413.6643,10401.412 3816.664,9804.4123 V 8258.5115 6714.4114 h 602.7003 602.7003 v 2142.9004 c 0,1178.6002 -1.8996,2142.9012 -5.6996,2142.9012 -1.9004,0 -273.6002,-269.7 -602.7003,-598.801 z"
             id="path925-1-8-3"
             style="fill:#b4b4b4;fill-opacity:1;stroke-width:2.01435" />
          <path
             d="m 2749.0636,8736.8117 -597.0003,-597.0004 v -713.7002 -711.8008 h 602.8002 602.7002 v 1310.6011 c 0,721.3004 -1.9004,1310.6005 -5.6996,1310.6005 -2,0.2007 -273.7001,-269.6001 -602.8002,-598.7002 z"
             id="path927-3-7-2"
             style="fill:#b4b4b4;fill-opacity:1;stroke-width:2.01435" />
        </g>
      </g>
      <g
         id="g841"
         style="stroke-width:0.260962" />
      <g
         id="g843"
         style="stroke-width:0.260962" />
      <g
         id="g845"
         style="stroke-width:0.260962" />
      <g
         id="g847"
         style="stroke-width:0.260962" />
      <g
         id="g849"
         style="stroke-width:0.260962" />
      <g
         id="g851"
         style="stroke-width:0.260962" />
      <g
         id="g853"
         style="stroke-width:0.260962" />
      <g
         id="g855"
         style="stroke-width:0.260962" />
      <g
         id="g857"
         style="stroke-width:0.260962" />
      <g
         id="g859"
         style="stroke-width:0.260962" />
      <g
         id="g861"
         style="stroke-width:0.260962" />
      <g
         id="g863"
         style="stroke-width:0.260962" />
      <g
         id="g865"
         style="stroke-width:0.260962" />
      <g
         id="g867"
         style="stroke-width:0.260962" />
      <g
         id="g869"
         style="stroke-width:0.260962" />
    </g>
  </g>
</svg>
