<?xml version="1.0" encoding="UTF-8" standalone="no"?>
<svg
   width="128"
   height="128"
   viewBox="0 0 33.866666 33.866668"
   version="1.1"
   id="svg8"
   inkscape:version="1.2.2 (b0a84865, 2022-12-01)"
   sodipodi:docname="icon.svg"
   inkscape:export-filename="icon128.png"
   inkscape:export-xdpi="96"
   inkscape:export-ydpi="96"
   xmlns:inkscape="http://www.inkscape.org/namespaces/inkscape"
   xmlns:sodipodi="http://sodipodi.sourceforge.net/DTD/sodipodi-0.dtd"
   xmlns="http://www.w3.org/2000/svg"
   xmlns:svg="http://www.w3.org/2000/svg"
   xmlns:rdf="http://www.w3.org/1999/02/22-rdf-syntax-ns#"
   xmlns:cc="http://creativecommons.org/ns#"
   xmlns:dc="http://purl.org/dc/elements/1.1/">
  <defs
     id="defs2">
    <rect
       x="-10543.896"
       y="907.04205"
       width="6861.6399"
       height="-2378.182"
       id="rect868" />
    <rect
       x="-6372.3304"
       y="10419.77"
       width="5653.0556"
       height="2612.1016"
       id="rect862" />
    <rect
       x="-3994.1483"
       y="11238.489"
       width="15360.717"
       height="4678.3909"
       id="rect856" />
  </defs>
  <sodipodi:namedview
     id="base"
     pagecolor="#ffffff"
     bordercolor="#666666"
     borderopacity="1.0"
     inkscape:pageopacity="0.0"
     inkscape:pageshadow="2"
     inkscape:zoom="2.0000001"
     inkscape:cx="-51.999999"
     inkscape:cy="114.75"
     inkscape:document-units="px"
     inkscape:current-layer="g929"
     inkscape:document-rotation="0"
     showgrid="false"
     units="px"
     inkscape:window-width="1920"
     inkscape:window-height="1027"
     inkscape:window-x="1923"
     inkscape:window-y="30"
     inkscape:window-maximized="0"
     inkscape:lockguides="false"
     inkscape:showpageshadow="2"
     inkscape:pagecheckerboard="0"
     inkscape:deskcolor="#d1d1d1" />
  <metadata
     id="metadata5">
    <rdf:RDF>
      <cc:Work
         rdf:about="">
        <dc:format>image/svg+xml</dc:format>
        <dc:type
           rdf:resource="http://purl.org/dc/dcmitype/StillImage" />
        <dc:title />
      </cc:Work>
    </rdf:RDF>
  </metadata>
  <g
     inkscape:label="Ebene 1"
     inkscape:groupmode="layer"
     id="layer1">
    <g
       id="g897"
       transform="matrix(1.0138787,0,0,1.0138787,1.9743211,1.8094686)"
       style="stroke-width:0.260962">
      <g
         id="g839"
         style="stroke-width:0.260962">
        <g
           transform="matrix(0.00338079,0,0,-0.00338079,-2.1516879,14.198756)"
           id="g929"
           style="fill:#0aa56c;fill-opacity:1;stroke-width:2.01435">
          <text
             xml:space="preserve"
             id="text854"
             style="font-weight:bold;font-size:1646.71px;line-height:1.25;font-family:AnticFont;-inkscape-font-specification:'AnticFont Bold';letter-spacing:0px;word-spacing:0px;white-space:pre;shape-inside:url(#rect856);display:inline" />
          <path
             d="m 8501.4641,3800.2553 c -683.0004,-67 -1260.9006,-120.5 -1281.9006,-122.5 -26.8,0 80.4,-118.6 369.3002,-407.5 l 405.5997,-405.6 -1071.5,-1071.5 L 5851.4631,721.75454 5042.1629,1531.0547 4234.7625,2338.4553 2172.1619,275.95404 111.56067,-1784.7465 l 424.801,-426.7001 426.69996,-424.8001 1630.10047,1630.3005 1632.0005,1632.00044 809.3002,-809.3002 807.4003,-807.40017 1502.0005,1501.90037 1502.0001,1502.00106 396.1003,-396.1005 c 258.3,-258.3001 399.9011,-386.5001 405.6,-367.3001 3.7977,13.4 61.1997,587.4006 126.2998,1270.4006 63.1001,685 120.5013,1280 126.3013,1325.9 l 11.4997,80.4 -82.3002,-1.9 c -46.0004,-1.9 -643.001,-57.4 -1327.9005,-124.4 z"
             id="path917-7-8"
             style="fill:#ea0000;fill-opacity:1;stroke-width:2.01435" />
          <path
             d="M 8266.0639,610.75424 7669.0637,13.754038 V -2412.3467 -4836.5478 h 602.6999 602.7999 v 3023.0013 c 0,1662.70054 -1.8989,3023.0012 -5.6966,3023.0012 -1.9992,0.2007 -273.5998,-269.60016 -602.7999,-598.70046 z"
             id="path919-0-1"
             style="fill:#ea0000;fill-opacity:1;stroke-width:2.01435" />
          <path
             d="m 4339.9627,-2574.9467 v -2261.5 h 602.7001 602.7002 v 1660.7998 1658.8005 l -602.7002,602.70014 -602.7001,602.7003 z"
             id="path921-4-5"
             style="fill:#ea0000;fill-opacity:1;stroke-width:2.01435" />
          <path
             d="m 6601.5633,-1053.8461 -597.0002,-597.0003 v -1593.8005 -1591.9009 h 602.7002 602.7002 v 2190.8011 c 0,1205.4004 -1.8996,2190.70064 -5.6997,2190.70064 -2,0.1003 -273.6001,-269.7001 -602.7002,-598.80004 z"
             id="path923-5-0"
             style="fill:#ea0000;fill-opacity:1;stroke-width:2.01435" />
          <path
             d="m 3272.3623,-1149.4463 -597.0002,-597 v -1545.9006 -1544.0998 h 602.7002 602.7002 v 2142.9 c 0,1178.6003 -1.8996,2142.90054 -5.6997,2142.90054 -1.9004,0 -273.6001,-269.7001 -602.7002,-598.80014 z"
             id="path925-1-8"
             style="fill:#ea0000;fill-opacity:1;stroke-width:2.01435" />
          <path
             d="m 1607.7619,-2814.0468 -597.0003,-597.0002 v -713.7001 -711.8007 h 602.8001 602.7002 v 1310.6008 c 0,721.3003 -1.9004,1310.6004 -5.6997,1310.6004 -1.9999,0.2007 -273.7,-269.6001 -602.8001,-598.7002 z"
             id="path927-3-7"
             style="fill:#ea0000;fill-opacity:1;stroke-width:2.01435" />
          <path
             style="fill:#ea0000;fill-opacity:1;stroke-width:1.00717"
             d="M 6.2497938,89.749793 1.0107142,84.492823 27.502291,57.997706 53.993869,31.502592 64.251293,41.751295 c 5.641585,5.636787 10.482,10.248704 10.756475,10.248704 0.65717,0 27.742232,-27.106095 27.742232,-27.763773 0,-0.278892 -2.025,-2.522694 -4.500003,-4.986227 -2.475,-2.463532 -4.499999,-4.714797 -4.499999,-5.002809 0,-0.454403 32.949452,-3.905689 33.400622,-3.498544 0.0828,0.07476 -0.60224,7.755645 -1.5224,17.068638 l -1.67301,16.932715 -5.11724,-4.982968 -5.11724,-4.982967 -19.360362,19.353388 -19.36037,19.353386 -9.75,-9.767715 C 59.887498,58.350879 55.075409,53.716018 54.556464,53.423431 53.728899,52.956843 51.024084,55.479761 32.550899,73.949108 L 11.488873,95.006762 Z"
             id="path518"
             transform="matrix(77.189512,0,0,-77.189512,60.45709,4727.7279)" />
          <path
             style="fill:#ea0000;fill-opacity:1;stroke-width:1.00717"
             d="M 6.4681788,89.468058 1.5111803,84.492388 27.716513,58.283489 53.921844,32.074591 64.161983,42.037294 c 5.632075,5.479488 10.55515,9.962705 10.94017,9.962705 0.936185,0 27.647847,-26.775251 27.647847,-27.713668 0,-0.404172 -1.93616,-2.769424 -4.302568,-5.256116 -2.79043,-2.932263 -4.064434,-4.60433 -3.624999,-4.757626 0.707959,-0.246971 14.770367,-1.818268 25.313947,-2.828516 3.37502,-0.323381 6.28299,-0.441365 6.46217,-0.262186 0.30191,0.301907 -2.03727,27.486715 -2.68844,31.243818 l -0.29043,1.675705 -4.93834,-4.919807 -4.93833,-4.919807 -19.371507,19.340547 -19.371505,19.340545 -10.13083,-9.971445 c -5.571955,-5.484294 -10.451934,-9.971444 -10.844389,-9.971444 -0.39246,0 -10.137921,9.324839 -21.656582,20.721864 L 11.425178,94.443728 Z"
             id="path520"
             transform="matrix(77.189512,0,0,-77.189512,60.45709,4727.7279)" />
          <path
             style="fill:#ea0000;fill-opacity:1;stroke-width:1.00717"
             d="M 6.7480143,89.248003 2.0104926,84.490703 28.005246,58.53599 53.999999,32.58128 64.191723,42.290639 c 5.60545,5.340148 10.553265,9.70936 10.995145,9.70936 1.05557,0 27.563132,-26.61131 27.563132,-27.671014 0,-0.448732 -1.714,-2.742331 -3.808878,-5.096888 -2.094885,-2.354556 -3.6938,-4.396088 -3.55315,-4.536737 C 95.931497,14.151831 119.60717,11.5 123.91629,11.5 H 126.25 v 2.150346 c 0,1.182691 -0.56199,8.213941 -1.24887,15.625 -0.68687,7.411059 -1.24937,13.695431 -1.25,13.965272 -5e-4,0.26984 -2.25271,-1.752505 -5.00463,-4.494102 l -5.00349,-4.98472 -19.371507,19.337508 -19.371505,19.337509 -9.5,-9.18656 c -5.225,-5.052604 -10.001334,-9.461276 -10.614074,-9.797046 -1.0054,-0.550943 -1.371185,-0.37568 -3.749998,1.796785 -3.149259,2.87608 -16.423323,15.804151 -29.893159,29.113986 l -9.757231,9.64133 z"
             id="path522"
             transform="matrix(77.189512,0,0,-77.189512,60.45709,4727.7279)" />
          <path
             style="fill:#ea0000;fill-opacity:1;stroke-width:1.00717"
             d="M 77.249998,103.11875 V 82.737494 l 7.5,-7.487496 7.5,-7.487496 V 95.631249 123.5 h -7.5 -7.5 z"
             id="path524"
             transform="matrix(77.189512,0,0,-77.189512,60.45709,4727.7279)" />
          <path
             style="fill:#ea0000;fill-opacity:1;stroke-width:1.00717"
             d="M 55.749999,94.881249 V 66.262502 l 7.499999,7.487496 7.5,7.487496 V 102.36875 123.5 h -7.5 -7.499999 z"
             id="path526"
             transform="matrix(77.189512,0,0,-77.189512,60.45709,4727.7279)" />
          <path
             style="fill:#ea0000;fill-opacity:1;stroke-width:1.00717"
             d="M 34.249999,103.61875 V 83.737494 l 7.5,-7.487496 7.5,-7.487496 V 96.131249 123.5 h -7.5 -7.5 z"
             id="path528"
             transform="matrix(77.189512,0,0,-77.189512,60.45709,4727.7279)" />
          <path
             style="fill:#ea0000;fill-opacity:1;stroke-width:1.00717"
             d="m 12.75,114.36875 v -9.13126 l 7.499999,-7.487493 7.5,-7.487496 V 106.88125 123.5 h -7.5 H 12.75 Z"
             id="path530"
             transform="matrix(77.189512,0,0,-77.189512,60.45709,4727.7279)" />
          <path
             style="fill:#ea0000;fill-opacity:1;stroke-width:1.00717"
             d="m 12.75,114.61875 v -8.88126 l 7.499999,-7.487493 7.5,-7.487496 V 107.13125 123.5 h -7.5 H 12.75 Z"
             id="path532"
             transform="matrix(77.189512,0,0,-77.189512,60.45709,4727.7279)" />
          <path
             style="fill:#ea0000;fill-opacity:1;stroke-width:1.00717"
             d="m 12.75,114.86875 v -8.63126 l 7.499999,-7.487493 7.5,-7.487496 V 107.38125 123.5 h -7.5 H 12.75 Z"
             id="path534"
             transform="matrix(77.189512,0,0,-77.189512,60.45709,4727.7279)" />
          <path
             style="fill:#ea0000;fill-opacity:1;stroke-width:1.00717"
             d="m 12.75,115.11875 v -8.38126 l 7.499999,-7.487493 7.5,-7.487496 V 107.63125 123.5 h -7.5 H 12.75 Z"
             id="path536"
             transform="matrix(77.189512,0,0,-77.189512,60.45709,4727.7279)" />
          <path
             style="fill:#ea0000;fill-opacity:1;stroke-width:1.00717"
             d="M 12.82279,115.125 12.89558,106.75 20.32279,99.518602 27.75,92.287208 V 107.8936 123.5 h -7.5 -7.5 z"
             id="path538"
             transform="matrix(77.189512,0,0,-77.189512,60.45709,4727.7279)" />
          <path
             style="fill:#ea0000;fill-opacity:1;stroke-width:1.00717"
             d="m 12.933658,115.125 0.338725,-8.375 7.238808,-7.247884 7.238808,-7.247881 V 107.87712 123.5 h -7.577532 -7.577533 z"
             id="path540"
             transform="matrix(77.189512,0,0,-77.189512,60.45709,4727.7279)" />
          <path
             style="fill:#ea0000;fill-opacity:1;stroke-width:1.00717"
             d="m 13.032968,115.125 0.329273,-8.375 5.818879,-5.90974 c 3.200384,-3.250361 6.437629,-6.359432 7.193879,-6.90905 l 1.375,-0.999307 V 108.21595 123.5 h -7.523152 -7.523152 z"
             id="path542"
             transform="matrix(77.189512,0,0,-77.189512,60.45709,4727.7279)" />
          <path
             style="fill:#ea0000;fill-opacity:1;stroke-width:1.00717"
             d="m 13.109739,115.375 0.300506,-8.125 3.162036,-3.52243 c 1.739121,-1.93733 4.965565,-5.158852 7.169877,-7.158931 l 4.007841,-3.636507 V 108.21606 123.5 h -7.470383 -7.470383 z"
             id="path544"
             transform="matrix(77.189512,0,0,-77.189512,60.45709,4727.7279)" />
          <path
             style="fill:#ea0000;fill-opacity:1;stroke-width:1.00717"
             d="M 6.9915063,88.991463 2.5122644,84.491373 28.231016,58.768984 53.949769,33.046595 l 2.867595,2.601702 c 1.577179,1.430936 6.179609,5.695452 10.227619,9.476702 4.048015,3.78125 7.708945,6.875 8.1354,6.875 0.87805,0 26.117567,-24.971087 27.105697,-26.817417 0.72818,-1.360618 0.31901,-2.071795 -4.206883,-7.312048 -1.367815,-1.583706 -2.395195,-2.962043 -2.28307,-3.06297 0.388105,-0.349337 15.705803,-2.093207 26.869123,-3.058963 l 3.66526,-0.317087 -0.27852,2.659243 c -0.15318,1.462583 -0.77223,8.579231 -1.37566,15.814773 l -1.09715,13.155531 -4.91809,-4.899633 -4.91808,-4.899632 -19.375132,19.370349 -19.375125,19.370348 -9.72815,-9.25144 c -5.350485,-5.088295 -10.140789,-9.38241 -10.645124,-9.54248 -0.5581,-0.177134 -1.543655,0.187149 -2.51823,0.930793 -0.880687,0.672007 -9.377637,8.846812 -18.88211,18.166232 -9.504473,9.31942 -18.286054,17.89875 -19.514625,19.06518 l -2.233765,2.12078 z"
             id="path546"
             transform="matrix(77.189512,0,0,-77.189512,60.45709,4727.7279)" />
          <path
             style="fill:#ea0000;fill-opacity:1;stroke-width:1.00717"
             d="M 7.2499998,88.911768 C 5.1874999,86.716568 3.4435431,84.769013 3.3745403,84.583868 3.3055376,84.398723 14.699826,72.798148 28.695181,58.804808 l 25.446103,-25.442431 6.679354,6.203201 c 11.0583,10.269978 13.541635,12.434421 14.266415,12.434421 1.68072,0 27.662947,-26.191055 27.662947,-27.885288 0,-0.494276 -1.4725,-2.669789 -3.272228,-4.834474 -1.79972,-2.164684 -3.09347,-4.100108 -2.875,-4.300941 0.35374,-0.325176 14.048648,-1.927191 23.397228,-2.73698 1.925,-0.166747 4.14931,-0.426573 4.94292,-0.577391 1.31174,-0.249287 1.4175,-0.166975 1.16335,0.90543 -0.15377,0.648804 -0.78326,7.367144 -1.39888,14.929644 -0.61562,7.5625 -1.25162,13.903811 -1.41335,14.091802 -0.16172,0.187991 -2.36735,-1.65955 -4.90139,-4.105647 l -4.60734,-4.44745 -17.392658,17.395568 C 86.826693,60.001834 78.047848,68.678103 76.884113,69.714868 l -2.11589,1.885025 -7.88411,-7.477415 C 56.530799,54.303235 55.030649,52.999999 54.081089,52.999999 c -1.15988,0 -4.083063,2.700394 -24.168348,22.326364 -9.947992,9.7205 -18.272991,17.65182 -18.499999,17.625155 -0.227008,-0.02666 -2.1002422,-1.844555 -4.1627422,-4.03975 z"
             id="path548"
             transform="matrix(77.189512,0,0,-77.189512,60.45709,4727.7279)" />
          <path
             style="fill:#ea0000;fill-opacity:1;stroke-width:1.00717"
             d="M 7.3208807,88.722358 C 5.3568963,86.619343 3.7521284,84.752738 3.7547299,84.574343 3.7573314,84.395953 15.063581,72.814053 28.879729,58.836792 l 25.12027,-25.413205 8.749999,8.102572 c 10.925405,10.117017 11.623705,10.660659 13.09401,10.194002 1.645425,-0.522237 26.315832,-25.436838 26.698922,-26.963193 0.25647,-1.02188 -0.26967,-2.035389 -2.788228,-5.370962 l -3.10435,-4.1114 1.424825,-0.352235 c 1.45247,-0.359072 16.782773,-2.113306 23.799823,-2.723395 3.84595,-0.334383 3.87498,-0.327959 3.87284,0.857058 -0.004,2.067228 -2.43966,28.052452 -2.64938,28.262169 -0.10995,0.109946 -2.27585,-1.754308 -4.81312,-4.142787 l -4.61322,-4.34269 -19.088462,19.083636 c -10.49866,10.496001 -19.34147,19.083636 -19.65069,19.083636 -0.309225,0 -3.12064,-2.42147 -6.247595,-5.38105 C 57.898093,55.409091 55.145684,52.999999 54.268099,52.999999 c -1.41264,0 -3.638894,2.013163 -23.365101,21.128649 -10.285168,9.966745 -18.995265,18.187955 -19.355771,18.26936 -0.360506,0.08141 -2.2623617,-1.572635 -4.2263463,-3.67565 z"
             id="path550"
             transform="matrix(77.189512,0,0,-77.189512,60.45709,4727.7279)" />
          <path
             style="fill:#ea0000;fill-opacity:1;stroke-width:1.00717"
             d="m 7.2231429,88.401058 -3.424892,-3.59894 2.3272171,-2.52606 c 1.2799695,-1.389335 12.588927,-12.9008 25.131017,-25.581035 l 22.803799,-23.054976 6.469859,6.003637 c 9.584055,8.893429 13.75373,12.356315 14.87828,12.356315 1.34078,0 26.676137,-25.416754 27.127337,-27.214492 0.26423,-1.052748 -0.16814,-1.977988 -2.27141,-4.860656 C 97.354332,15.936468 96.873652,15 97.736472,15 c 0.326405,0 3.219228,-0.334358 6.428498,-0.743017 11.2917,-1.437854 20.76768,-2.274333 21.17299,-1.869018 0.37527,0.37527 -1.92094,28.111681 -2.36396,28.554694 -0.10639,0.106396 -2.22319,-1.659582 -4.704,-3.924394 l -4.51055,-4.117843 -19.324147,19.034403 -19.324145,19.034403 -1.30558,-0.952885 c -0.71807,-0.524085 -4.56808,-4.02586 -8.55558,-7.781725 -9.178939,-8.645731 -10.178689,-9.423671 -11.639424,-9.057049 -1.26516,0.317534 -7.35585,5.932786 -27.8732,25.697429 -7.493666,7.21875 -13.954358,13.125 -14.357093,13.125 -0.402735,0 -2.2734477,-1.619525 -4.1571381,-3.59894 z"
             id="path552"
             transform="matrix(77.189512,0,0,-77.189512,60.45709,4727.7279)" />
          <path
             style="fill:#ea0000;fill-opacity:1;stroke-width:1.00717"
             d="m 7.7497917,88.714698 c -1.9248855,-1.85832 -3.4997918,-3.642025 -3.4997918,-3.963785 0,-0.321765 11.2087791,-11.92202 24.9083971,-25.778351 l 24.908397,-25.193324 8.315144,7.657064 c 9.424515,8.678638 11.71733,10.529993 13.065425,10.549787 1.317555,0.01935 26.632507,-25.38416 27.082557,-27.177292 0.27504,-1.095873 -0.0559,-1.898028 -1.73555,-4.206446 C 98.507097,17.458805 97.471162,15.612169 97.806712,15.276616 98.162787,14.920542 119.93468,12.5 122.78137,12.5 h 2.61158 l -0.33084,5.125 c -0.64619,10.009782 -1.97692,22.874999 -2.36611,22.874999 -0.21728,0 -2.21939,-1.63125 -4.44913,-3.625 -2.22974,-1.99375 -4.24362,-3.625 -4.47529,-3.625 -0.23167,0 -8.97104,8.38125 -19.420822,18.625 -10.449785,10.243749 -19.22057,18.624999 -19.49064,18.624999 -0.27007,0 -4.17408,-3.40131 -8.67558,-7.558465 -4.501495,-4.157152 -8.91351,-8.119616 -9.804469,-8.805474 -2.886855,-2.222288 -1.12926,-3.595621 -26.610624,20.792774 -7.573195,7.24836 -14.838289,14.07564 -16.144653,15.171735 l -2.375208,1.992895 z"
             id="path554"
             transform="matrix(77.189512,0,0,-77.189512,60.45709,4727.7279)" />
          <path
             style="fill:#ea0000;fill-opacity:1;stroke-width:1.00717"
             d="m 7.6701305,88.592543 -3.5432231,-3.543225 1.535697,-1.89966 C 6.5072378,82.104843 17.743012,70.568433 30.630992,57.513185 l 23.432692,-23.736813 8.316699,7.658497 c 9.42607,8.680071 11.71885,10.531425 13.06698,10.55122 1.308675,0.01922 26.632277,-25.383245 27.079067,-27.163394 0.27423,-1.092602 -0.13591,-2.023374 -2.22003,-5.038159 C 97.646727,15.937188 97.280377,15 98.436092,15 c 0.377355,0 5.603478,-0.5625 11.613608,-1.25 6.01013,-0.6875 11.92117,-1.25 13.13565,-1.25 h 2.20813 l -0.32919,4.625 c -0.67756,9.519765 -1.92967,22.146283 -2.25491,22.739088 -0.2256,0.411187 -1.79051,-0.648204 -4.73625,-3.206276 l -4.39932,-3.820366 -8.08691,7.975001 C 85.446538,60.674114 75.293773,70.499903 74.912728,70.498728 c -0.227,-6.95e-4 -4.12523,-3.40133 -8.66273,-7.556965 C 55.884414,53.448519 55.063249,52.81297 53.628359,53.173105 c -1.247726,0.313159 -5.764368,4.421775 -25.43096,23.133568 -7.25857,6.906175 -14.049395,13.29297 -15.090722,14.192885 l -1.893323,1.63621 z"
             id="path556"
             transform="matrix(77.189512,0,0,-77.189512,60.45709,4727.7279)" />
          <path
             style="fill:#ea0000;fill-opacity:1;stroke-width:1.00717"
             d="M 7.5273268,88.527538 4.0814733,85.055073 6.3828269,82.402538 C 7.6485713,80.943638 18.893842,69.406543 31.372317,56.76454 l 22.688137,-22.985459 7.969774,7.323535 c 9.490655,8.721095 12.15539,10.886049 13.40708,10.89253 1.243305,0.0064 26.652652,-25.4334 27.072082,-27.104575 0.24247,-0.966043 -0.26018,-2.126768 -2.22304,-5.133581 -1.394998,-2.136912 -2.536353,-4.050577 -2.536353,-4.252588 0,-0.20201 2.418753,-0.641717 5.375003,-0.977127 12.20625,-1.384893 18.4826,-2.007946 20.32174,-2.017336 l 1.94674,-0.0099 -0.32703,4.625 c -0.62541,8.844774 -1.94368,22.128647 -2.2541,22.714028 -0.19836,0.37406 -1.92463,-0.794255 -4.73011,-3.20126 l -4.41776,-3.790289 -7.58224,7.472792 C 79.864653,66.159403 75.230268,70.538648 74.522478,70.142548 c -0.39855,-0.22304 -3.696965,-3.102605 -7.32982,-6.39904 -9.73189,-8.830661 -12.052404,-10.743509 -13.033179,-10.743509 -1.214029,0 -5.363948,3.686904 -21.65948,19.242889 -13.711231,13.08897 -20.906834,19.75711 -21.319934,19.75711 -0.113787,0 -1.7575187,-1.56261 -3.6527382,-3.47246 z"
             id="path558"
             transform="matrix(77.189512,0,0,-77.189512,60.45709,4727.7279)" />
          <path
             style="fill:#ea0000;fill-opacity:1;stroke-width:1.00717"
             d="m 7.5268099,88.527013 -3.4463704,-3.47298 2.799362,-3.15202 C 8.4194508,80.168408 19.662939,68.633488 31.865332,56.26887 l 22.186167,-22.481129 8.474249,7.745354 c 9.575825,8.752182 11.69612,10.466904 12.94256,10.466904 1.007575,0 25.681252,-24.561019 26.738662,-26.61657 0.65514,-1.27357 0.59042,-1.545783 -0.95106,-4 C 98.364397,16.779821 97.621187,15.461934 97.813012,15.278391 98.087432,15.01582 121.3683,12.5 123.52365,12.5 h 1.83564 l -0.35512,5.375 c -0.77447,11.721816 -1.9927,21.874999 -2.62467,21.874999 -0.34128,0 -2.4308,-1.538687 -4.64339,-3.419303 L 113.71323,32.911392 97.967567,48.330695 C 89.307453,56.811312 80.555698,65.280683 78.519228,67.151523 l -3.70268,3.401525 -3.908275,-3.480365 c -2.14955,-1.9142 -6.576855,-5.863634 -9.83845,-8.776523 -3.2616,-2.912888 -6.334059,-5.296161 -6.827694,-5.296161 -1.26735,0 -3.596916,2.030877 -17.69025,15.422059 -15.842055,15.052785 -24.979916,23.56081 -25.315289,23.570405 -0.144875,0.004 -1.8142762,-1.555305 -3.7097801,-3.46545 z"
             id="path560"
             transform="matrix(77.189512,0,0,-77.189512,60.45709,4727.7279)" />
        </g>
      </g>
      <g
         id="g841"
         style="stroke-width:0.260962" />
      <g
         id="g843"
         style="stroke-width:0.260962" />
      <g
         id="g845"
         style="stroke-width:0.260962" />
      <g
         id="g847"
         style="stroke-width:0.260962" />
      <g
         id="g849"
         style="stroke-width:0.260962" />
      <g
         id="g851"
         style="stroke-width:0.260962" />
      <g
         id="g853"
         style="stroke-width:0.260962" />
      <g
         id="g855"
         style="stroke-width:0.260962" />
      <g
         id="g857"
         style="stroke-width:0.260962" />
      <g
         id="g859"
         style="stroke-width:0.260962" />
      <g
         id="g861"
         style="stroke-width:0.260962" />
      <g
         id="g863"
         style="stroke-width:0.260962" />
      <g
         id="g865"
         style="stroke-width:0.260962" />
      <g
         id="g867"
         style="stroke-width:0.260962" />
      <g
         id="g869"
         style="stroke-width:0.260962" />
    </g>
  </g>
</svg>
